# AST/ASF file generated using VICON BodyLanguage
# -----------------------------------------------
:version 1.10
:name VICON
:units
  mass 1.0
  length 0.45
  angle deg
:documentation
   .ast/.asf automatically generated from VICON data using
   VICON BodyBuilder and BodyLanguage model FoxedUp or BRILLIANT.MOD
:root
   order TX TY TZ RX RY RZ
   axis XYZ
   position 0 0 0  
   orientation 0 0 0 
:bonedata
  begin
     id 1 
     name lhipjoint
     direction 0.677091 -0.635792 0.370561 
     length 2.74323 
     axis 0 0 0  XYZ
  end
  begin
     id 2 
     name lfemur
     direction 0.34202 -0.939693 0  
     length 7.44995  
     axis 0 0 20  XYZ
    dof rx ry rz
    limits (-160.0 20.0)
           (-70.0 70.0)
           (-60.0 70.0)
  end
  begin
     id 3 
     name ltibia
     direction 0.34202 -0.939693 0   
     length 7.34467   
     axis 0 0 20   XYZ
    dof rx
    limits (-10.0 170.0)
  end
  begin
     id 4 
     name lfoot
     direction 0.101953 -0.280114 0.954537   
     length 1.72105   
     axis -90 7.62852e-016 20   XYZ
    dof rx rz
    limits (-45.0 90.0)
           (-70.0 20.0)
  end
  begin
     id 5 
     name ltoes
     direction 1.53537e-011 -4.21915e-011 1   
     length 0.865872   
     axis -90 7.62852e-016 20   XYZ
    dof rx
    limits (-90.0 20.0)
  end
  begin
     id 6 
     name rhipjoint
     direction -0.695735 -0.620586 0.361699   
     length 2.81045  
     axis 0 0 0  XYZ 
  end
  begin
     id 7 
     name rfemur
     direction -0.34202 -0.939693 0   
     length 7.29387   
     axis 0 0 -20   XYZ
    dof rx ry rz
    limits (-160.0 20.0)
           (-70.0 70.0)
           (-70.0 60.0)
  end
  begin
     id 8 
     name rtibia
     direction -0.34202 -0.939693 0   
     length 7.44935   
     axis 0 0 -20   XYZ
    dof rx
    limits (-10.0 170.0)
 end
 begin
     id 9 
     name rfoot
     direction -0.104163 -0.286184 0.952496   
     length 1.77731  
     axis -90 -7.62852e-016 -20   XYZ
    dof rx rz
    limits (-45.0 90.0)
           (-20.0 70.0)
  end
  begin
     id 10 
     name rtoes
     direction -1.5355e-011 -4.21888e-011 1   
     length 0.892424   
     axis -90 -7.62852e-016 -20   XYZ
    dof rx
    limits (-90.0 20.0)
  end
  begin
     id 11 
     name lowerback
     direction 0.0100202 0.997226 -0.0737589   
     length 2.16892   
     axis 0 0 0   XYZ
    dof rx ry rz
    limits (-20.0 45.0)
           (-30.0 30.0)
           (-30.0 30.0)
  end
  begin
     id 12 
     name upperback
     direction 0.00432398 0.999988 -0.00215019   
     length 2.17326   
     axis 0 0 0   XYZ
    dof rx ry rz
    limits (-20.0 45.0)
           (-30.0 30.0)
           (-30.0 30.0)
  end
  begin
     id 13 
     name thorax
     direction -0.00195047 0.999485 0.0320434   
     length 2.18139   
     axis 0 0 0   XYZ
    dof rx ry rz
    limits (-20.0 45.0)
           (-30.0 30.0)
           (-30.0 30.0)
  end
  begin
     id 14 
     name lowerneck
     direction 0.00782762 0.986241 0.165128   
     length 1.88415   
     axis 0 0 0   XYZ
    dof rx ry rz
    limits (-20.0 45.0)
           (-30.0 30.0)
           (-30.0 30.0)
  end
  begin
     id 15 
     name upperneck
     direction 0.00988667 0.981098 -0.193258   
     length 1.9242   
     axis 0 0 0   XYZ
    dof rx ry rz
    limits (-20.0 45.0)
           (-30.0 30.0)
           (-30.0 30.0)
  end
  begin
     id 16
     name head
     direction 0.00252199 0.996513 -0.0833958  
     length 1.93887  
     axis 0 0 0   XYZ
    dof rx ry rz
    limits (-20.0 45.0)
           (-30.0 30.0)
           (-30.0 30.0)
  end
  begin
     id 17 
     name lclavicle
     direction 0.929492 0.368193 -0.0218667  
     length 3.5955  
     axis 0 0 0   XYZ
    dof ry rz
    limits (-20.0 10.0)
           (0.0 20.0)
  end
  begin
     id 18 
     name lhumerus
     direction 1 -4.48972e-011 1.41911e-027   
     length 5.2795   
     axis 180 -30 -90   XYZ
    dof rx ry rz
    limits (-60.0 90.0)
           (-90.0 90.0)
           (-90.0 90.0)
  end
  begin
     id 19
     name lradius
     direction 1 -4.48963e-011 7.05772e-027   
     length 3.53504   
     axis 180 -30 -90   XYZ
    dof rx
    limits (-10.0 170.0)
  end
  begin
     id 20
     name lwrist
     direction 1 -4.48957e-011 9.54866e-027   
     length 1.76752   
     axis -7.69462e-015 90 90   XYZ
    dof ry
    limits (-180.0 0.0)
 end
  begin
     id 21 
     name lhand
     direction 1 -4.48979e-011 1.90973e-026   
     length 0.667948   
     axis -1.21857e-014 90 90   XYZ
    dof rx rz
    limits (-90.0 90.0)
           (-45.0 45.0)
  end
  begin
     id 22 
     name lfingers
     direction 1 -4.48987e-011 3.81946e-026   
     length 0.538517   
     axis -2.43714e-014 90 90   XYZ
    dof rx
    limits (0.0 90.0)
  end
  begin
     id 23
     name lthumb
     direction 0.707107 -6.34962e-011 0.707107   
     length 0.773206   
     axis -90 45 2.85299e-015   XYZ
    dof rx rz
    limits (-45.0 45.0)
           (-45.0 45.0)
  end
  begin
     id 24 
     name rclavicle
     direction -0.898763 0.414256 -0.143584   
     length 3.5176  
     axis 0 0 0   XYZ 
    dof ry rz
    limits (-10.0 20.0)
           (-20.0 0.0)
  end
  begin
     id 25 
     name rhumerus
     direction -1 -4.48971e-011 1.129e-027  
     length 5.25035   
     axis 180 30 90   XYZ
    dof rx ry rz
    limits (-90.0 60.0)
           (-90.0 90.0)
           (-90.0 90.0)
  end
  begin
     id 26 
     name rradius
     direction -1 -4.48955e-011 6.34664e-027   
     length 3.58884   
     axis 180 30 90   XYZ
    dof rx
    limits (-10.0 170.0)
  end
  begin
     id 27 
     name rwrist
     direction -1 -4.48966e-011 9.54866e-027   
     length 1.79442   
     axis -7.69462e-015 -90 -90   XYZ
    dof ry
    limits (-180.0 0.0)
  end
  begin
     id 28
     name rhand
     direction -1 -4.48973e-011 1.90973e-026   
     length 0.779235   
     axis -1.21857e-014 -90 -90   XYZ
    dof rx rz
    limits (-90.0 90.0)
           (-45.0 45.0)
  end
  begin
     id 29
     name rfingers
     direction -1 -4.48984e-011 3.81946e-026   
     length 0.62824   
     axis -2.43714e-014 -90 -90   XYZ
    dof rx
    limits (0.0 90.0)
  end
  begin
     id 30
     name rthumb
     direction -0.707107 -6.34968e-011 0.707107   
     length 0.90203   
     axis -90 -45 -2.85299e-015   XYZ
    dof rx rz
    limits (-45.0 45.0)
           (-45.0 45.0)
  end
:hierarchy
  begin
    root lhipjoint rhipjoint lowerback
    lhipjoint lfemur
    lfemur ltibia
    ltibia lfoot
    lfoot ltoes
    rhipjoint rfemur
    rfemur rtibia
    rtibia rfoot
    rfoot rtoes
    lowerback upperback
    upperback thorax
    thorax lowerneck lclavicle rclavicle
    lowerneck upperneck
    upperneck head
    lclavicle lhumerus
    lhumerus lradius
    lradius lwrist
    lwrist lhand lthumb
    lhand lfingers
    rclavicle rhumerus
    rhumerus rradius
    rradius rwrist
    rwrist rhand rthumb
    rhand rfingers
  end

#!OML:ASF I:\Random Stuff\random\construction\7_22_03\Session 2\subj1.ASF
:FULLY-SPECIFIED
:DEGREES
632
root 4.79036 17.3574 -10.4642 36.6399 -13.1673 -9.29628
lowerback 34.3998 -0.415338 -6.06682
upperback 12.0597 -3.22926 -7.86432
thorax -4.34226 -1.51923 -3.96396
lowerneck -11.9528 -2.20115 -11.3202
upperneck 29.9373 0.113598 -1.32567
head 11.8976 -1.36544 1.45842
rclavicle 2.8625e-014 2.94201e-014
rhumerus -22.0784 7.4451 -61.5029
rradius 124.096
rwrist 22.3898
rhand -33.8228 26.8327
rfingers 7.12502
rthumb -7.0085 -3.03131
lclavicle 2.8625e-014 2.94201e-014
lhumerus 30.3661 -53.8289 66.5567
lradius 81.8936
lwrist 96.3397
lhand 2.12514 55.679
lfingers 7.12502
lthumb -152.376 1343.67
rfemur -50.7106 -5.42458 39.2652
rtibia 15.9096
rfoot -2.59491 7.21741
rtoes -23.2237
lfemur -54.984 4.27188 0.378918
ltibia 37.0162
lfoot -13.5128 6.00006
ltoes -32.2502
633
root 4.78967 17.3654 -10.464 36.6108 -13.1325 -9.30202
lowerback 34.4353 -0.423182 -6.051
upperback 12.0689 -3.23772 -7.88015
thorax -4.34786 -1.52209 -3.98591
lowerneck -11.9329 -2.20349 -11.3005
upperneck 29.924 0.124396 -1.39784
head 11.8886 -1.3661 1.42958
rclavicle -2.8625e-014 -4.45278e-014
rhumerus -22.0087 7.35297 -61.3814
rradius 124.004
rwrist 22.9702
rhand -32.6202 25.7083
rfingers 7.12502
rthumb -5.84756 -4.19105
lclavicle -2.8625e-014 -4.45278e-014
lhumerus 30.3072 -53.7986 66.6599
lradius 81.8871
lwrist 96.634
lhand 1.70827 55.7672
lfingers 7.12502
lthumb -152.774 1343.82
rfemur -50.5889 -5.34812 39.1109
rtibia 15.8369
rfoot -2.33706 7.09095
rtoes -20.3575
lfemur -54.9544 4.19085 0.440654
ltibia 37.034
lfoot -13.5596 6.04364
ltoes -32.0545
634
root 4.78844 17.3657 -10.4624 36.5977 -13.0919 -9.30562
lowerback 34.4427 -0.424174 -6.03263
upperback 12.069 -3.2348 -7.89388
thorax -4.3529 -1.51965 -4.01089
lowerneck -11.8911 -2.21739 -11.2566
upperneck 29.9316 0.105205 -1.44953
head 11.8843 -1.37561 1.40051
rclavicle -6.36111e-015 5.00937e-014
rhumerus -21.991 7.3179 -61.2795
rradius 123.951
rwrist 23.5117
rhand -31.4126 27.4555
rfingers 7.12502
rthumb -4.68157 -2.47272
lclavicle -6.36111e-015 5.00937e-014
lhumerus 30.2437 -53.7957 66.7807
lradius 81.8525
lwrist 96.967
lhand 1.26405 55.735
lfingers 7.12502
lthumb -153.199 1343.86
rfemur -50.5391 -5.4437 39.1934
rtibia 15.7521
rfoot -2.33749 7.17094
rtoes -20.2801
lfemur -54.9457 4.14557 0.480649
ltibia 37.0404
lfoot -13.5762 6.05621
ltoes -31.9838
635
root 4.78697 17.3578 -10.4604 36.5965 -13.0585 -9.2917
lowerback 34.4272 -0.428333 -6.03819
upperback 12.0729 -3.24029 -7.90895
thorax -4.34412 -1.52192 -4.02229
lowerneck -11.9013 -2.23195 -11.2366
upperneck 29.984 0.0896998 -1.46499
head 11.9082 -1.38438 1.38925
rclavicle 9.85972e-014 6.36111e-014
rhumerus -21.9671 7.3747 -61.1886
rradius 123.854
rwrist 24.1189
rhand -30.9539 26.6895
rfingers 7.12502
rthumb -4.23866 -3.24805
lclavicle 9.85972e-014 6.36111e-014
lhumerus 30.2101 -53.8001 66.7845
lradius 81.8589
lwrist 97.1823
lhand 0.900177 55.5071
lfingers 7.12502
lthumb -153.548 1343.68
rfemur -50.5366 -5.61958 39.4162
rtibia 15.632
rfoot -2.57171 7.34919
rtoes -23.5142
lfemur -54.9709 4.10955 0.498931
ltibia 37.0567
lfoot -13.5769 6.06904
ltoes -31.9914
636
root 4.78386 17.3556 -10.4593 36.604 -13.1084 -9.32085
lowerback 34.4226 -0.399088 -6.11893
upperback 12.0573 -3.23426 -7.94072
thorax -4.35538 -1.51983 -4.01569
lowerneck -11.9475 -2.22779 -11.2076
upperneck 30.0575 0.103826 -1.48173
head 11.9461 -1.38102 1.37974
rclavicle 2.54444e-014 5.84427e-014
rhumerus -21.9014 7.47243 -61.1222
rradius 123.675
rwrist 24.616
rhand -30.2468 23.8107
rfingers 7.12502
rthumb -3.55575 -6.13934
lclavicle 2.54444e-014 5.84427e-014
lhumerus 30.1177 -53.7761 66.7776
lradius 81.8941
lwrist 97.1732
lhand 0.684109 55.34
lfingers 7.12502
lthumb -153.755 1343.54
rfemur -50.4513 -5.64372 39.5318
rtibia 15.4488
rfoot -2.64634 7.46516
rtoes -25.2119
lfemur -54.9576 4.15769 0.513678
ltibia 37.0998
lfoot -13.6405 6.03769
ltoes -31.8958
637
root 4.78095 17.3582 -10.458 36.6376 -13.1355 -9.35887
lowerback 34.373 -0.394098 -6.1642
upperback 12.0468 -3.24203 -7.9799
thorax -4.34896 -1.52391 -4.03114
lowerneck -11.9662 -2.21596 -11.1868
upperneck 30.084 0.119032 -1.48199
head 11.9593 -1.37389 1.37807
rclavicle -6.99722e-014 -2.34566e-014
rhumerus -21.819 7.56045 -61.0817
rradius 123.517
rwrist 24.7276
rhand -29.8922 23.4847
rfingers 7.12502
rthumb -3.21338 -6.4708
lclavicle -6.99722e-014 -2.34566e-014
lhumerus 30.0375 -53.7473 66.7708
lradius 81.9177
lwrist 97.1741
lhand 0.419751 55.2868
lfingers 7.12502
lthumb -154.008 1343.53
rfemur -50.3612 -5.62558 39.5894
rtibia 15.2537
rfoot -2.58627 7.5286
rtoes -25.1916
lfemur -54.9636 4.18998 0.557731
ltibia 37.1362
lfoot -13.6917 6.01658
ltoes -31.9302
638
root 4.7785 17.3585 -10.4574 36.6892 -13.1054 -9.41196
lowerback 34.2931 -0.40959 -6.13975
upperback 12.0547 -3.24613 -7.99961
thorax -4.31532 -1.52604 -4.06412
lowerneck -11.9688 -2.20976 -11.1781
upperneck 30.0638 0.1225 -1.47415
head 11.9511 -1.36975 1.38001
rclavicle -4.13472e-014 -4.57205e-014
rhumerus -21.7706 7.6391 -61.0158
rradius 123.409
rwrist 24.6302
rhand -29.5129 23.5877
rfingers 7.12502
rthumb -2.84701 -6.37302
lclavicle -4.13472e-014 -4.57205e-014
lhumerus 30.0859 -53.7346 66.6866
lradius 81.9079
lwrist 97.3131
lhand 0.032614 55.2557
lfingers 7.12502
lthumb -154.378 1343.55
rfemur -50.3205 -5.65528 39.7162
rtibia 15.0965
rfoot -2.55022 7.63494
rtoes -25.2445
lfemur -54.9896 4.14291 0.689863
ltibia 37.1399
lfoot -13.6453 6.13879
ltoes -32.3246
639
root 4.77645 17.3588 -10.457 36.6967 -13.0611 -9.4366
lowerback 34.2745 -0.434968 -6.10564
upperback 12.0679 -3.26424 -8.01451
thorax -4.29903 -1.53391 -4.09188
lowerneck -12.0231 -2.21602 -11.18
upperneck 30.0904 0.121687 -1.46743
head 11.9729 -1.37118 1.38247
rclavicle 2.54444e-014 -3.26007e-014
rhumerus -21.7778 7.6661 -60.9033
rradius 123.404
rwrist 24.6031
rhand -28.7465 23.5834
rfingers 7.12502
rthumb -2.10684 -6.38591
lclavicle 2.54444e-014 -3.26007e-014
lhumerus 30.1168 -53.6899 66.6023
lradius 81.9128
lwrist 97.4588
lhand -0.304522 55.2914
lfingers 7.12502
lthumb -154.701 1343.63
rfemur -50.2823 -5.7456 39.8413
rtibia 14.9911
rfoot -2.55165 7.77413
rtoes -25.3712
lfemur -54.986 4.06782 0.789784
ltibia 37.1234
lfoot -13.5855 6.2632
ltoes -32.745
640
root 4.77548 17.3601 -10.456 36.6529 -13.0446 -9.42432
lowerback 34.3028 -0.459279 -6.10538
upperback 12.0827 -3.2977 -8.04738
thorax -4.29723 -1.54865 -4.11548
lowerneck -12.0725 -2.22129 -11.1899
upperneck 30.122 0.120877 -1.45158
head 11.9958 -1.37269 1.38971
rclavicle 2.8625e-014 -4.77083e-014
rhumerus -21.8242 7.65664 -60.7621
rradius 123.516
rwrist 24.6814
rhand -27.9295 23.4025
rfingers 7.12502
rthumb -1.31781 -6.57318
lclavicle 2.8625e-014 -4.77083e-014
lhumerus 30.0534 -53.6067 66.5447
lradius 81.9942
lwrist 97.5748
lhand -0.604758 55.3848
lfingers 7.12502
lthumb -154.989 1343.77
rfemur -50.2182 -5.8616 39.9114
rtibia 14.9198
rfoot -2.55266 7.87933
rtoes -25.0524
lfemur -54.9422 4.04027 0.780523
ltibia 37.104
lfoot -13.6213 6.24103
ltoes -32.5468
